<svg width="85" height="19" viewBox="0 0 85 19" fill="none" xmlns="http://www.w3.org/2000/svg">
<path d="M82.1562 6.32812C81.4297 4.14844 79.7656 2.76562 77.3516 2.76562C74.3516 2.76562 71.9609 5.13281 71.9609 9.51562C71.9609 13.8984 74.3516 16.2656 77.4922 16.2656C80.3633 16.2656 82.3203 14.3438 82.3672 11.3438H77.9375V9.49219H84.4297V11.3203C84.4297 15.5391 81.5234 18.2344 77.4922 18.2344C72.9688 18.2344 69.9219 14.8828 69.9219 9.51562C69.9219 4.14844 72.9922 0.796875 77.3516 0.796875C80.9375 0.796875 83.7031 3.04688 84.3359 6.32812H82.1562Z" fill="white"/>
<path d="M66.8281 1.03125V18H64.8125L55.625 4.78125H55.4609V18H53.3516V1.03125H55.3906L64.5781 14.2734H64.7422V1.03125H66.8281Z" fill="white"/>
<path d="M50.2578 9.51562C50.2578 14.8828 47.0938 18.2344 42.7578 18.2344C38.3984 18.2344 35.2578 14.8828 35.2578 9.51562C35.2578 4.14844 38.3984 0.796875 42.7578 0.796875C47.0938 0.796875 50.2578 4.14844 50.2578 9.51562ZM48.2188 9.51562C48.2188 5.13281 45.8281 2.76562 42.7578 2.76562C39.6875 2.76562 37.2969 5.13281 37.2969 9.51562C37.2969 13.8984 39.6875 16.2656 42.7578 16.2656C45.8281 16.2656 48.2188 13.8984 48.2188 9.51562Z" fill="white"/>
<path d="M30.5938 5.29688C30.4062 3.63281 28.8828 2.67188 26.8438 2.67188C24.5938 2.67188 23.1172 3.84375 23.1172 5.46094C23.1172 7.24219 25.1094 7.89844 26.3984 8.22656L28.0859 8.69531C29.9141 9.16406 32.8906 10.2188 32.8906 13.3828C32.8906 16.1484 30.6641 18.3047 26.7266 18.3047C23.0703 18.3047 20.7969 16.4062 20.6094 13.5938H22.7656C22.9531 15.4922 24.7109 16.3828 26.7266 16.3828C29.0703 16.3828 30.8281 15.1875 30.8281 13.3359C30.8281 11.6953 29.2578 11.0625 27.4766 10.5469L25.3906 9.98438C22.7188 9.21094 21.0781 7.85156 21.0781 5.55469C21.0781 2.69531 23.6328 0.796875 26.9141 0.796875C30.1953 0.796875 32.5625 2.71875 32.6562 5.29688H30.5938Z" fill="white"/>
<path d="M0.875 1.03125H3.40625L9.125 15H9.33594L15.0547 1.03125H17.5859V18H15.5938V5.17969H15.4297L10.1562 18H8.28125L3.00781 5.17969H2.86719V18H0.875V1.03125Z" fill="white"/>
</svg>
