<svg width="11" height="24" viewBox="0 0 11 24" fill="none" xmlns="http://www.w3.org/2000/svg">
<path d="M9.98296 18C10.5669 18 11 17.6036 11 17.0687V6.96054C11 6.42567 10.5669 6 9.97082 6C9.58852 6 9.30033 6.1433 8.88425 6.50654L5.90979 9.0645C5.8639 9.10009 5.81536 9.12001 5.7524 9.12001H3.72103C2.60952 9.12001 2 9.69593 2 10.7742V13.2349C2 14.3177 2.60952 14.8912 3.72103 14.8912H5.75011C5.81078 14.8912 5.86161 14.9047 5.9075 14.9404L8.88425 17.5227C9.26884 17.857 9.5869 18 9.98296 18Z" fill="white" fill-opacity="0.6"/>
</svg>
