<svg width="48" height="48" viewBox="0 0 48 48" fill="none" xmlns="http://www.w3.org/2000/svg">
<path d="M11.047 4.5H3.45056L16.9785 21.7181C18.2272 23.2739 19.58 24 21.5572 24H29.1536L15.6257 6.78191C14.481 5.22606 13.1282 4.5 11.047 4.5Z" fill="#00388B"/>
<path d="M36.9531 4.44812C34.9759 4.44812 33.519 5.17418 32.3744 6.73004L24.1536 17.3098L29.3566 24.0518L44.5495 4.44812H36.9531Z" fill="#00AFEC"/>
<path d="M16.9785 26.2301L3.45056 43.5519H11.047C13.0242 43.5519 14.481 42.8258 15.6257 41.27L29.1536 24.0519H21.5572C19.58 24.0519 18.2272 24.6742 16.9785 26.2301Z" fill="#00AFEC"/>
<path d="M24.1536 30.6902L32.3744 41.27C33.6231 42.8258 34.9759 43.5519 36.9531 43.5519H44.5495L29.4607 24.0519L24.1536 30.6902Z" fill="#00388B"/>
</svg>
