<svg width="50" height="50" viewBox="0 0 50 50" fill="none" xmlns="http://www.w3.org/2000/svg">
<path d="M5.74837 37C6.38852 37 6.91939 36.8014 7.54394 36.4347L23.4542 27.2686C24.5628 26.627 25.0468 25.8784 25.0468 24.9923C25.0468 24.1216 24.5628 23.373 23.4542 22.7314L7.54394 13.5652C6.90378 13.1986 6.38852 13 5.74837 13C4.5305 13 3.5 13.9166 3.5 15.6123V34.3876C3.5 36.0834 4.5305 37 5.74837 37ZM27.2015 37C27.8417 37 28.3725 36.8014 28.9971 36.4347L44.923 27.2686C46.016 26.627 46.5 25.8784 46.5 24.9923C46.5 24.1216 46.016 23.373 44.923 22.7314L28.9971 13.5652C28.3725 13.1986 27.8417 13 27.2015 13C25.9837 13 24.9532 13.9166 24.9532 15.6123V34.3876C24.9532 36.0834 25.9837 37 27.2015 37Z" fill="white"/>
</svg>
