<svg width="25" height="25" viewBox="0 0 25 25" fill="none" xmlns="http://www.w3.org/2000/svg">
<path d="M4.26203 23.3273L11.1818 15.7156C12.0034 14.8118 13.4362 14.8491 14.2096 15.7944L20.4051 23.3668C20.9393 24.0197 20.4748 25 19.6312 25H5.00197C4.13383 25 3.67805 23.9697 4.26203 23.3273Z" fill="white" fill-opacity="0.4"/>
<path d="M15.9946 15.593C16.3392 15.898 16.872 15.8686 17.1215 15.482C17.5563 14.808 17.8404 14.0442 17.9496 13.2428C18.0965 12.165 17.9205 11.0678 17.4439 10.09C16.9672 9.11217 16.2113 8.29767 15.2717 7.74948C14.3322 7.20128 13.2511 6.94401 12.1654 7.0102C11.0796 7.07638 10.0378 7.46305 9.17178 8.12131C8.30576 8.77957 7.65438 9.67986 7.30001 10.7083C6.94565 11.7368 6.90422 12.8472 7.18096 13.8992C7.38671 14.6814 7.76147 15.4051 8.27496 16.0212C8.56956 16.3747 9.10198 16.3392 9.40696 15.9946C9.71193 15.65 9.67063 15.1274 9.39993 14.7553C9.12109 14.372 8.9143 13.9383 8.79249 13.4753C8.5996 12.742 8.62848 11.968 8.87548 11.2512C9.12248 10.5343 9.5765 9.90677 10.1801 9.44795C10.7838 8.98912 11.5099 8.7196 12.2667 8.67347C13.0236 8.62733 13.7771 8.80666 14.432 9.18877C15.0869 9.57087 15.6138 10.1386 15.946 10.8202C16.2782 11.5017 16.4009 12.2665 16.2985 13.0178C16.2339 13.4922 16.0813 13.9477 15.8511 14.3621C15.6276 14.7643 15.65 15.2881 15.9946 15.593Z" fill="white" fill-opacity="0.4"/>
<path d="M21.2195 20.2175C21.5734 20.5307 22.1168 20.4994 22.4051 20.1249C23.7327 18.4003 24.5902 16.3545 24.8855 14.1882C25.2194 11.7386 24.8194 9.24494 23.736 7.02266C22.6527 4.80038 20.9348 2.94925 18.7994 1.70335C16.664 0.45745 14.2071 -0.127259 11.7394 0.0231647C9.27176 0.173588 6.9041 1.05239 4.93586 2.54843C2.96763 4.04448 1.48722 6.09058 0.681851 8.42799C-0.123518 10.7654 -0.217679 13.2891 0.411276 15.6801C0.967487 17.7945 2.06713 19.721 3.59441 21.2716C3.92606 21.6083 4.46926 21.5734 4.7825 21.2195C5.09574 20.8656 5.05996 20.327 4.73199 19.9867C3.45631 18.6631 2.53652 17.0316 2.06645 15.2446C1.52361 13.1811 1.60488 11.0029 2.29998 8.98552C2.99508 6.96815 4.27279 5.2022 5.97154 3.91099C7.67028 2.61978 9.71377 1.86131 11.8436 1.73148C13.9734 1.60165 16.0939 2.1063 17.9369 3.18162C19.7799 4.25693 21.2626 5.85461 22.1976 7.77262C23.1326 9.69062 23.4778 11.8428 23.1897 13.957C22.9401 15.7878 22.2253 17.519 21.1199 18.9877C20.8356 19.3653 20.8656 19.9043 21.2195 20.2175Z" fill="white" fill-opacity="0.4"/>
<path d="M18.8328 18.1051C19.2641 18.4869 19.9286 18.4496 20.2609 17.979C21.1374 16.7373 21.7063 15.299 21.913 13.783C22.1667 11.9213 21.8627 10.0262 21.0394 8.33723C20.2161 6.64829 18.9104 5.24143 17.2875 4.29455C15.6646 3.34766 13.7974 2.90328 11.922 3.01761C10.0465 3.13193 8.24711 3.79982 6.75126 4.93681C5.2554 6.07381 4.13029 7.62884 3.51821 9.40527C2.90613 11.1817 2.83456 13.0997 3.31257 14.9168C3.70181 16.3965 4.44121 17.7551 5.46209 18.8811C5.84901 19.3078 6.51315 19.2641 6.89494 18.8328C7.27672 18.4014 7.22984 17.7464 6.85629 17.3079C6.13758 16.4642 5.61417 15.4665 5.32997 14.3862C4.95692 12.9681 5.01277 11.4712 5.49045 10.0848C5.96813 8.69846 6.84618 7.48488 8.01358 6.59755C9.18097 5.71022 10.5853 5.18899 12.0489 5.09977C13.5125 5.01055 14.9697 5.35736 16.2363 6.09632C17.5028 6.83529 18.5218 7.93323 19.1643 9.2513C19.8068 10.5694 20.0441 12.0484 19.846 13.5013C19.6952 14.6082 19.2968 15.662 18.6859 16.5868C18.3684 17.0674 18.4014 17.7233 18.8328 18.1051Z" fill="white" fill-opacity="0.4"/>
</svg>
