<svg width="25" height="25" viewBox="0 0 25 25" fill="none" xmlns="http://www.w3.org/2000/svg">
<path d="M4.26203 23.3273L11.1818 15.7155C12.0034 14.8117 13.4362 14.8491 14.2096 15.7944L20.4051 23.3667C20.9393 24.0196 20.4748 24.9999 19.6312 24.9999H5.00197C4.13383 24.9999 3.67805 23.9696 4.26203 23.3273Z" fill="black" fill-opacity="0.4"/>
<path d="M15.9946 15.593C16.3392 15.898 16.872 15.8686 17.1215 15.4819C17.5563 14.808 17.8404 14.0441 17.9496 13.2427C18.0965 12.1649 17.9205 11.0677 17.4439 10.0899C16.9672 9.11211 16.2113 8.29761 15.2717 7.74942C14.3322 7.20122 13.2511 6.94395 12.1654 7.01013C11.0796 7.07632 10.0378 7.46299 9.17178 8.12125C8.30576 8.77951 7.65438 9.6798 7.30001 10.7083C6.94565 11.7367 6.90422 12.8472 7.18096 13.8992C7.38671 14.6813 7.76147 15.4051 8.27496 16.0212C8.56956 16.3747 9.10198 16.3391 9.40696 15.9946C9.71193 15.65 9.67063 15.1273 9.39993 14.7552C9.12109 14.3719 8.9143 13.9383 8.79249 13.4752C8.5996 12.742 8.62848 11.968 8.87548 11.2511C9.12248 10.5342 9.5765 9.90671 10.1801 9.44788C10.7838 8.98906 11.5099 8.71954 12.2667 8.67341C13.0236 8.62727 13.7771 8.8066 14.432 9.1887C15.0869 9.57081 15.6138 10.1385 15.946 10.8201C16.2782 11.5016 16.4009 12.2664 16.2985 13.0177C16.2339 13.4921 16.0813 13.9477 15.8511 14.362C15.6276 14.7642 15.65 15.288 15.9946 15.593Z" fill="black" fill-opacity="0.4"/>
<path d="M21.2195 20.2174C21.5734 20.5307 22.1168 20.4994 22.4051 20.1249C23.7327 18.4003 24.5902 16.3544 24.8855 14.1881C25.2194 11.7385 24.8194 9.24488 23.736 7.0226C22.6527 4.80032 20.9348 2.94919 18.7994 1.70329C16.664 0.457389 14.2071 -0.12732 11.7394 0.0231036C9.27176 0.173527 6.9041 1.05233 4.93586 2.54837C2.96763 4.04442 1.48722 6.09052 0.681851 8.42793C-0.123518 10.7653 -0.217679 13.2891 0.411276 15.68C0.967487 17.7944 2.06713 19.7209 3.59441 21.2715C3.92606 21.6082 4.46926 21.5733 4.7825 21.2194C5.09574 20.8655 5.05996 20.3269 4.73199 19.9866C3.45631 18.663 2.53652 17.0315 2.06645 15.2446C1.52361 13.181 1.60488 11.0028 2.29998 8.98546C2.99508 6.96809 4.27279 5.20214 5.97154 3.91093C7.67028 2.61972 9.71377 1.86125 11.8436 1.73142C13.9734 1.60159 16.0939 2.10624 17.9369 3.18156C19.7799 4.25687 21.2626 5.85455 22.1976 7.77256C23.1326 9.69056 23.4778 11.8428 23.1897 13.957C22.9401 15.7878 22.2253 17.5189 21.1199 18.9877C20.8356 19.3653 20.8656 19.9042 21.2195 20.2174Z" fill="black" fill-opacity="0.4"/>
<path d="M18.8328 18.105C19.2641 18.4868 19.9286 18.4495 20.2609 17.9789C21.1374 16.7373 21.7063 15.2989 21.913 13.783C22.1667 11.9212 21.8627 10.0261 21.0394 8.33716C20.2161 6.64823 18.9104 5.24137 17.2875 4.29449C15.6646 3.3476 13.7974 2.90322 11.922 3.01755C10.0465 3.13187 8.24711 3.79975 6.75126 4.93675C5.2554 6.07374 4.13029 7.62878 3.51821 9.40521C2.90613 11.1816 2.83456 13.0997 3.31257 14.9168C3.70181 16.3964 4.44121 17.755 5.46209 18.881C5.84901 19.3078 6.51315 19.2641 6.89494 18.8327C7.27672 18.4014 7.22984 17.7463 6.85629 17.3078C6.13758 16.4641 5.61417 15.4665 5.32997 14.3861C4.95692 12.968 5.01277 11.4711 5.49045 10.0848C5.96813 8.6984 6.84618 7.48482 8.01358 6.59749C9.18097 5.71016 10.5853 5.18893 12.0489 5.09971C13.5125 5.01049 14.9697 5.35729 16.2363 6.09626C17.5028 6.83522 18.5218 7.93316 19.1643 9.25124C19.8068 10.5693 20.0441 12.0483 19.846 13.5012C19.6952 14.6081 19.2968 15.662 18.6859 16.5867C18.3684 17.0673 18.4014 17.7232 18.8328 18.105Z" fill="black" fill-opacity="0.4"/>
</svg>
