<svg width="50" height="50" viewBox="0 0 50 50" fill="none" xmlns="http://www.w3.org/2000/svg">
<path d="M8.16309 39.9092V10.0703C8.16309 8.75781 8.51172 7.77344 9.20898 7.11719C9.90625 6.46094 10.7402 6.13281 11.7109 6.13281C12.5586 6.13281 13.3926 6.36523 14.2129 6.83008L39.0273 21.3086C39.9707 21.8555 40.6748 22.4092 41.1396 22.9697C41.6045 23.5166 41.8369 24.1934 41.8369 25C41.8369 25.7793 41.6045 26.4561 41.1396 27.0303C40.6748 27.5908 39.9707 28.1377 39.0273 28.6709L14.2129 43.1494C13.3926 43.6279 12.5586 43.8672 11.7109 43.8672C10.7402 43.8672 9.90625 43.5322 9.20898 42.8623C8.51172 42.2061 8.16309 41.2217 8.16309 39.9092Z" fill="white"/>
</svg>
