<svg width="50" height="50" viewBox="0 0 50 50" fill="none" xmlns="http://www.w3.org/2000/svg">
<path d="M22.7898 37C24.0082 37 25.0391 36.0834 25.0391 34.3876V15.6123C25.0391 13.9166 24.0082 13 22.7898 13C22.1495 13 21.6341 13.1986 20.9936 13.5652L5.07755 22.7314C3.96858 23.373 3.5 24.1216 3.5 24.9923C3.5 25.8784 3.96858 26.627 5.07755 27.2686L20.9936 36.4347C21.6184 36.8014 22.1495 37 22.7898 37ZM44.2508 37C45.4691 37 46.5 36.0834 46.5 34.3876V15.6123C46.5 13.9166 45.4691 13 44.2508 13C43.6104 13 43.095 13.1986 42.4546 13.5652L26.5385 22.7314C25.4295 23.373 24.9609 24.1216 24.9609 24.9923C24.9609 25.8784 25.4295 26.627 26.5385 27.2686L42.4546 36.4347C43.0794 36.8014 43.6104 37 44.2508 37Z" fill="white"/>
</svg>
