<svg width="48" height="48" viewBox="0 0 48 48" fill="none" xmlns="http://www.w3.org/2000/svg">
<path fill-rule="evenodd" clip-rule="evenodd" d="M24.042 4.03198C35.065 4.03198 44 12.967 44 23.99C44 35.012 35.065 43.948 24.042 43.948C13.02 43.948 4.08398 35.013 4.08398 23.99C4.08498 12.967 13.02 4.03198 24.042 4.03198Z" fill="#F06292"/>
<path fill-rule="evenodd" clip-rule="evenodd" d="M36.561 12.574C35.657 9.02898 29.78 7.86398 24.218 9.83998C20.908 11.016 17.324 12.862 14.747 15.272C11.683 18.138 11.195 20.632 11.396 21.674C12.106 25.351 17.145 27.755 19.216 29.539V29.55C18.605 29.851 14.135 32.113 13.089 34.426C11.985 36.866 13.265 38.617 14.112 38.853C16.737 39.583 19.43 38.27 20.878 36.111C22.275 34.027 22.159 31.337 21.552 29.998C22.389 29.777 23.366 29.678 24.606 29.823C28.107 30.232 28.794 32.418 28.662 33.333C28.531 34.248 27.796 34.751 27.551 34.903C27.305 35.055 27.231 35.108 27.251 35.22C27.281 35.384 27.394 35.378 27.604 35.343C27.892 35.294 29.442 34.599 29.509 32.91C29.593 30.766 27.539 28.368 23.901 28.43C22.403 28.456 21.461 28.598 20.78 28.852C20.73 28.795 20.678 28.738 20.626 28.681C18.377 26.281 14.219 24.584 14.395 21.358C14.459 20.185 14.867 17.097 22.384 13.351C28.542 10.282 33.472 11.127 34.324 12.998C35.541 15.672 31.689 20.641 25.294 21.358C22.857 21.631 21.574 20.687 21.255 20.335C20.919 19.965 20.869 19.948 20.744 20.018C20.54 20.131 20.669 20.458 20.744 20.653C20.935 21.15 21.719 22.031 23.054 22.47C24.229 22.856 27.09 23.067 30.55 21.729C34.424 20.229 37.45 16.059 36.561 12.574ZM20.076 30.638C20.366 31.712 20.334 32.714 20.035 33.621C20.002 33.722 19.965 33.821 19.925 33.92C19.885 34.018 19.842 34.116 19.796 34.212C19.565 34.692 19.254 35.141 18.874 35.556C17.714 36.821 16.094 37.299 15.4 36.896C14.65 36.461 15.026 34.678 16.37 33.256C17.816 31.727 19.897 30.744 19.897 30.744L19.894 30.738C19.954 30.705 20.015 30.672 20.076 30.638Z" fill="white"/>
</svg>
