<svg width="24" height="24" viewBox="0 0 24 24" fill="none" xmlns="http://www.w3.org/2000/svg">
<path d="M9.68381 18.2041C10.2482 18.2041 10.663 17.7942 10.663 17.2411V6.78925C10.663 6.2362 10.2482 5.79606 9.67433 5.79606C9.2993 5.79606 9.02404 5.94424 8.62817 6.31982L5.75741 8.96473C5.71796 9.00156 5.6665 9.02215 5.60808 9.02215H3.65701C2.58211 9.02215 2 9.61763 2 10.7325V13.2769C2 14.3965 2.58211 14.9895 3.65701 14.9895H5.60588C5.66429 14.9895 5.71576 15.0036 5.75521 15.0404L8.62817 17.7106C8.99374 18.0562 9.29994 18.2041 9.68381 18.2041ZM13.1315 15.1308C13.4623 15.3411 13.8947 15.2668 14.1265 14.9402C14.7032 14.1707 15.047 13.1044 15.047 11.9932C15.047 10.882 14.7032 9.82041 14.1265 9.04178C13.8947 8.71955 13.4623 8.63847 13.1315 8.85556C12.7518 9.09573 12.677 9.54585 12.9784 10.0084C13.3481 10.54 13.5574 11.2516 13.5574 11.9932C13.5574 12.7348 13.3434 13.4396 12.9784 13.978C12.6817 14.443 12.7518 14.886 13.1315 15.1308ZM16.0595 16.9985C16.4136 17.2138 16.848 17.128 17.0863 16.7777C18.0018 15.4737 18.5294 13.7626 18.5294 11.9932C18.5294 10.2238 18.0065 8.5033 17.0863 7.20651C16.848 6.8584 16.4136 6.77263 16.0595 6.98786C15.6788 7.21618 15.6283 7.67845 15.8982 8.09078C16.6243 9.16299 17.042 10.5532 17.042 11.9932C17.042 13.4332 16.6148 14.8119 15.8982 15.8934C15.633 16.3058 15.6788 16.7702 16.0595 16.9985ZM18.9931 18.885C19.3419 19.1046 19.7971 19.0032 20.0332 18.637C21.2663 16.7784 22 14.4945 22 11.9997C22 9.50249 21.2521 7.2258 20.0332 5.36468C19.7971 4.99162 19.3419 4.89711 18.9931 5.11671C18.6165 5.34753 18.5619 5.80324 18.8179 6.21122C19.8724 7.82875 20.5199 9.81627 20.5199 11.9997C20.5199 14.1785 19.8724 16.1776 18.8179 17.7905C18.5619 18.1984 18.6165 18.652 18.9931 18.885Z" fill="white" fill-opacity="0.6"/>
</svg>
